<svg width="27" height="27" viewBox="0 0 27 27" fill="none" xmlns="http://www.w3.org/2000/svg">
<path d="M13.4417 6.72119C13.1446 6.72119 12.8597 6.83921 12.6496 7.04928C12.4395 7.25936 12.3215 7.54428 12.3215 7.84137V12.7948L9.97138 14.1525C9.7162 14.3021 9.53055 14.5465 9.45494 14.8325C9.37933 15.1185 9.4199 15.4227 9.56781 15.6789C9.71571 15.9351 9.95894 16.1224 10.2444 16.1999C10.5299 16.2774 10.8344 16.2388 11.0916 16.0926L14.0018 14.4123C14.1717 14.3136 14.3128 14.1721 14.411 14.0019C14.5093 13.8317 14.5613 13.6388 14.5619 13.4423V7.84137C14.5619 7.54428 14.4439 7.25936 14.2338 7.04928C14.0237 6.83921 13.7388 6.72119 13.4417 6.72119Z" fill="#FF0004"/>
<path d="M13.4423 2.24023C11.2268 2.24023 9.06101 2.89721 7.21889 4.12807C5.37676 5.35894 3.941 7.10842 3.09317 9.15528C2.24533 11.2021 2.0235 13.4544 2.45572 15.6274C2.88795 17.8003 3.95481 19.7963 5.52141 21.3629C7.088 22.9295 9.08397 23.9963 11.2569 24.4285C13.4298 24.8608 15.6821 24.6389 17.729 23.7911C19.7759 22.9433 21.5253 21.5075 22.7562 19.6654C23.9871 17.8233 24.644 15.6575 24.644 13.442C24.644 11.971 24.3543 10.5143 23.7914 9.15528C23.2284 7.79621 22.4033 6.56134 21.3631 5.52116C20.3229 4.48098 19.0881 3.65586 17.729 3.09292C16.3699 2.52998 14.9133 2.24023 13.4423 2.24023ZM14.5624 13.442C14.5619 13.6385 14.5099 13.8315 14.4116 14.0017C14.3133 14.1718 14.1723 14.3133 14.0023 14.4121L11.0921 16.0924C10.835 16.2386 10.5304 16.2771 10.245 16.1996C9.95951 16.1221 9.71628 15.9348 9.56838 15.6787C9.42047 15.4225 9.3799 15.1182 9.45551 14.8322C9.53111 14.5463 9.71677 14.3018 9.97195 14.1522L12.3221 12.7945V7.84112C12.3221 7.54403 12.4401 7.25911 12.6502 7.04904C12.8602 6.83896 13.1452 6.72094 13.4423 6.72094C13.7393 6.72094 14.0243 6.83896 14.2343 7.04904C14.4444 7.25911 14.5624 7.54403 14.5624 7.84112V13.442Z" fill="#FF0004" fill-opacity="0.2"/>
</svg>
