<svg width="17" height="21" viewBox="0 0 17 21" fill="none" xmlns="http://www.w3.org/2000/svg">
<path d="M8.32878 10.306C10.9676 10.306 13.1068 8.16682 13.1068 5.528C13.1068 2.88918 10.9676 0.75 8.32878 0.75C5.68996 0.75 3.55078 2.88918 3.55078 5.528C3.55078 8.16682 5.68996 10.306 8.32878 10.306Z" stroke="white" stroke-width="1.5" stroke-linecap="round" stroke-linejoin="round"/>
<path fill-rule="evenodd" clip-rule="evenodd" d="M0.750016 16.9513C0.748748 16.6154 0.823869 16.2836 0.969712 15.9811C1.42738 15.0657 2.718 14.5806 3.78893 14.3609C4.56129 14.1961 5.34432 14.086 6.13218 14.0314C7.59085 13.9033 9.05795 13.9033 10.5166 14.0314C11.3044 14.0866 12.0874 14.1967 12.8599 14.3609C13.9308 14.5806 15.2214 15.02 15.6791 15.9811C15.9724 16.5979 15.9724 17.3139 15.6791 17.9307C15.2214 18.8918 13.9308 19.3312 12.8599 19.5417C12.0884 19.7133 11.3051 19.8266 10.5166 19.8804C9.32938 19.981 8.1366 19.9994 6.94683 19.9353C6.67223 19.9353 6.40678 19.9353 6.13218 19.8804C5.34665 19.8272 4.56633 19.714 3.79809 19.5417C2.718 19.3312 1.43653 18.8918 0.969712 17.9307C0.824614 17.6246 0.749568 17.29 0.750016 16.9513Z" stroke="white" stroke-width="1.5" stroke-linecap="round" stroke-linejoin="round"/>
</svg>
