<svg width="60" height="60" viewBox="0 0 60 60" fill="none" xmlns="http://www.w3.org/2000/svg">
<rect width="60" height="60" rx="30" fill="#FF0004"/>
<path d="M29.3686 29.334C33.3268 29.334 36.5356 26.1252 36.5356 22.167C36.5356 18.2088 33.3268 15 29.3686 15C25.4104 15 22.2016 18.2088 22.2016 22.167C22.2016 26.1252 25.4104 29.334 29.3686 29.334Z" stroke="white" stroke-width="3.75" stroke-linecap="round" stroke-linejoin="round"/>
<path fill-rule="evenodd" clip-rule="evenodd" d="M18 39.3021C17.9981 38.7983 18.1108 38.3006 18.3296 37.8467C19.0161 36.4737 20.952 35.746 22.5584 35.4165C23.7169 35.1693 24.8915 35.0041 26.0733 34.9222C28.2613 34.73 30.4619 34.73 32.6499 34.9222C33.8316 35.005 35.0061 35.1702 36.1648 35.4165C37.7712 35.746 39.7071 36.4051 40.3936 37.8467C40.8336 38.7719 40.8336 39.846 40.3936 40.7712C39.7071 42.2128 37.7712 42.8719 36.1648 43.1877C35.0076 43.4451 33.8327 43.615 32.6499 43.6957C30.8691 43.8466 29.0799 43.8742 27.2952 43.7781C26.8833 43.7781 26.4852 43.7781 26.0733 43.6957C24.895 43.616 23.7245 43.4461 22.5721 43.1877C20.952 42.8719 19.0298 42.2128 18.3296 40.7712C18.1119 40.3121 17.9994 39.8102 18 39.3021Z" stroke="white" stroke-width="3.75" stroke-linecap="round" stroke-linejoin="round"/>
</svg>
