<svg width="30" height="30" viewBox="0 0 30 30" fill="none" xmlns="http://www.w3.org/2000/svg">
<path d="M28.8102 27.1345L23.7973 22.2335L23.6798 22.0548C23.4614 21.8373 23.1627 21.7148 22.8509 21.7148C22.5391 21.7148 22.2404 21.8373 22.0219 22.0548C17.7617 25.9632 11.1973 26.1756 6.68209 22.5513C2.16688 18.9269 1.10202 12.5903 4.19371 7.744C7.2854 2.89767 13.5743 1.0454 18.8896 3.41562C24.2049 5.78583 26.8972 11.643 25.1811 17.1027C25.0575 17.4972 25.1585 17.9261 25.4461 18.2279C25.7337 18.5298 26.1641 18.6587 26.5753 18.5662C26.9864 18.4736 27.3159 18.1736 27.4395 17.7792C29.491 11.3001 26.3925 4.32768 20.1485 1.37238C13.9045 -1.58293 6.38872 0.365785 2.4632 5.9579C-1.46231 11.55 -0.61953 19.1073 4.44636 23.7409C9.51225 28.3746 17.2809 28.694 22.7269 24.4926L27.1653 28.832C27.6237 29.2782 28.3648 29.2782 28.8232 28.832C29.2811 28.3795 29.2811 27.6509 28.8232 27.1983L28.8102 27.1345Z" fill="black" fill-opacity="0.6"/>
</svg>
