<svg width="60" height="60" viewBox="0 0 60 60" fill="none" xmlns="http://www.w3.org/2000/svg">
<rect width="60" height="60" rx="30" fill="#FF0004"/>
<g clip-path="url(#clip0_1_2175)">
<path d="M22.5 39C20.8425 39 19.515 40.3425 19.515 42C19.515 43.6575 20.8425 45 22.5 45C24.1575 45 25.5 43.6575 25.5 42C25.5 40.3425 24.1575 39 22.5 39ZM13.5 15V18H16.5L21.8925 29.3775L19.8675 33.0525C19.635 33.4875 19.5 33.975 19.5 34.5C19.5 36.1575 20.8425 37.5 22.5 37.5H40.5V34.5H23.1375C22.9275 34.5 22.7625 34.335 22.7625 34.125C22.7625 34.0575 22.7775 33.9975 22.8075 33.945L24.15 31.5H35.325C36.45 31.5 37.4325 30.8775 37.95 29.955L43.3125 20.22C43.4325 20.01 43.5 19.7625 43.5 19.5C43.5 19.1022 43.342 18.7206 43.0607 18.4393C42.7794 18.158 42.3978 18 42 18H19.8225L18.3975 15H13.5ZM37.5 39C35.8425 39 34.515 40.3425 34.515 42C34.515 43.6575 35.8425 45 37.5 45C39.1575 45 40.5 43.6575 40.5 42C40.5 40.3425 39.1575 39 37.5 39Z" fill="white"/>
</g>
<defs>
<clipPath id="clip0_1_2175">
<rect width="36" height="36" fill="white" transform="translate(12 12)"/>
</clipPath>
</defs>
</svg>
