<svg width="1512" height="957" viewBox="0 0 1512 957" fill="none" xmlns="http://www.w3.org/2000/svg">
<path d="M211.074 884C388.048 815.19 484.098 650.362 671.373 696.352C755.847 717.097 774.325 783.778 860.488 798.914C876.154 801.666 890.948 802.965 904.956 802.949C913.05 798.358 921.002 792.746 933 784.5C933 784.5 1055.34 684.399 1162.75 571.498C1182.42 536.025 1202.33 500.287 1224.44 467.377C1263.52 409.215 1280.42 369.385 1324 313.5C1429.2 178.596 1534.72 137.992 1711.15 73.2306C1808.96 37.3261 1868.94 -17.1869 1972.34 5.25371C1997.04 10.6128 2033 25.5275 2033 25.5275C2033 25.5275 1851.6 61.9536 1743.98 103.641C1589.59 163.439 1464.72 177.902 1364 292.5C1315.53 347.652 1303.32 398.672 1260.5 457C1233.03 494.414 1198.73 533.674 1162.75 571.498C1097.8 688.588 1035.42 802.801 904.956 802.949C895.157 808.508 885.149 812.57 867.5 818C788.747 842.227 744.962 742.348 663.5 725.5C476.554 686.836 380.472 830.289 211.074 906.842C130.808 943.116 12.6821 1010 12.6821 1010L-23 954.545C-23 954.545 118.862 919.854 211.074 884Z" fill="#FF0004"/>
</svg>
